<?xml version="1.0" standalone="no"?>
<!DOCTYPE svg PUBLIC "-//W3C//DTD SVG 20010904//EN"
 "http://www.w3.org/TR/2001/REC-SVG-20010904/DTD/svg10.dtd">
<svg version="1.0" xmlns="http://www.w3.org/2000/svg"
 width="626.000000pt" height="352.000000pt" viewBox="0 0 626.000000 352.000000"
 preserveAspectRatio="xMidYMid meet">
<metadata>
Created by potrace 1.16, written by Peter Selinger 2001-2019
</metadata>
<g transform="translate(0.000000,352.000000) scale(0.100000,-0.100000)"
fill="#000000" stroke="none">
<path d="M0 1760 l0 -1760 2478 0 c1969 0 2481 3 2491 13 9 8 12 8 7 0 -4 -8
27 -12 119 -12 l125 -1 97 67 c54 37 134 93 178 125 44 31 98 67 119 79 82 46
20 -2 -170 -131 l-197 -135 91 -3 c102 -3 101 -4 242 103 30 23 69 50 85 60
56 34 4 -10 -105 -89 l-104 -76 40 0 c22 0 48 6 59 14 32 21 215 116 215 111
0 -7 -73 -53 -145 -91 l-60 -33 217 0 217 -1 20 34 c39 62 123 106 203 106
l38 0 -1 75 c-1 83 -1 83 -72 32 -16 -10 -30 -17 -32 -15 -2 2 21 19 51 38
l54 35 0 279 0 278 -25 -16 c-13 -9 -31 -16 -39 -16 -7 0 -16 -7 -20 -15 -3
-8 -10 -15 -16 -15 -8 0 -8 6 0 20 11 20 -3 30 -15 10 -8 -14 -25 -3 -25 16 0
10 6 13 19 9 14 -4 20 1 25 21 4 15 2 32 -5 40 -8 10 -8 14 0 14 6 0 11 5 11
12 0 6 -3 8 -7 5 -3 -4 -11 0 -17 9 -7 8 -32 18 -56 21 -25 3 -50 9 -56 14 -5
5 -37 15 -69 24 -32 8 -62 20 -66 27 -5 8 -10 2 -15 -15 -3 -16 -11 -26 -18
-24 -6 2 -70 -27 -143 -64 -73 -38 -143 -71 -155 -73 -13 -3 -33 -8 -44 -11
-19 -6 -22 -2 -26 32 -6 42 5 64 23 46 8 -8 8 -17 -1 -33 -11 -21 -10 -22 9
-17 11 3 23 1 26 -4 3 -5 71 24 150 63 108 54 145 77 147 93 2 11 12 24 23 29
11 5 27 22 35 39 20 42 103 97 145 97 82 0 156 -118 120 -190 -9 -18 -10 -31
-3 -43 5 -10 7 -25 4 -32 -3 -8 1 -21 9 -29 17 -17 20 -30 5 -21 -5 3 -10 -1
-10 -10 0 -24 25 -29 54 -10 l26 17 0 303 0 303 -43 -21 c-34 -18 -60 -22
-137 -22 -85 0 -101 3 -150 29 -30 15 -65 37 -77 48 -17 16 -25 18 -40 8 -17
-11 -17 -11 1 -6 16 6 17 4 6 -9 -15 -18 -6 -32 12 -18 9 8 19 5 32 -8 18 -17
18 -19 2 -25 -23 -9 -61 13 -75 43 -15 33 -14 40 9 46 19 5 18 9 -17 60 -21
31 -43 53 -50 50 -6 -3 -17 -1 -24 3 -8 5 -5 12 11 24 24 18 20 43 -5 33 -8
-3 -15 0 -15 6 0 6 7 11 15 11 16 0 10 30 -9 42 -7 5 -5 12 6 20 24 19 27 51
6 63 -15 9 -16 14 -6 27 7 9 19 18 27 20 8 2 33 26 56 53 74 91 182 145 284
145 40 -1 100 -17 164 -45 15 -6 17 -1 17 44 l0 51 -35 0 c-51 0 -118 35 -155
81 -40 50 -61 151 -42 201 7 19 8 34 2 38 -10 6 -7 46 3 43 4 -2 13 -3 20 -3
8 0 7 -4 -3 -10 -8 -5 -11 -10 -5 -10 5 0 25 15 45 34 39 37 85 56 136 56 l34
0 0 140 c0 77 -2 140 -4 140 -7 0 -275 -158 -307 -180 -16 -12 -33 -20 -36
-16 -6 6 38 34 217 139 107 62 125 76 128 100 2 15 0 27 -4 27 -4 0 -59 -39
-121 -86 -63 -47 -129 -93 -146 -102 -18 -8 -45 -25 -62 -37 -47 -35 -85 -58
-85 -52 0 3 44 36 98 73 53 37 102 73 107 80 17 21 200 174 208 174 4 0 7 119
7 265 l0 265 -97 0 -98 0 -98 -102 c-54 -57 -95 -96 -90 -88 4 8 8 20 8 25 0
6 6 10 13 10 6 0 12 4 11 8 0 4 28 39 61 78 58 64 60 69 37 69 -21 0 -38 -18
-93 -97 -94 -136 -95 -158 -9 -128 134 45 247 -101 200 -261 -18 -62 -67 -110
-122 -120 -21 -3 -51 -19 -68 -34 -96 -88 -235 -93 -322 -11 -18 17 -34 31
-36 31 -2 0 -21 -25 -41 -55 -20 -30 -41 -55 -47 -55 -5 0 -7 -6 -3 -12 4 -7
4 -10 -1 -6 -4 4 -14 -2 -20 -15 -81 -148 -235 -383 -235 -359 0 7 27 51 60
99 33 47 60 92 60 100 0 7 5 13 10 13 6 0 10 4 10 10 0 12 157 270 176 290 13
13 14 13 8 -5 -6 -16 -4 -18 6 -8 11 10 10 17 -4 37 -9 14 -16 32 -16 41 0 26
-15 17 -34 -22 -43 -84 -110 -203 -113 -200 -4 5 20 55 83 168 30 54 54 101
54 106 0 5 -6 18 -14 29 -14 18 -18 12 -61 -79 -25 -55 -44 -104 -42 -110 2
-6 23 36 47 92 24 57 46 99 47 94 2 -5 -31 -83 -73 -174 -42 -90 -83 -181 -90
-202 -19 -50 -83 -178 -99 -197 -7 -8 -34 -64 -60 -125 -62 -143 -95 -208
-102 -201 -3 3 -1 11 4 18 16 22 63 138 55 138 -4 0 -2 4 4 8 11 7 186 393
181 399 -2 1 -62 -60 -134 -136 -121 -128 -132 -143 -153 -207 -12 -38 -26
-73 -31 -78 -14 -16 -11 4 12 64 l20 55 -140 -140 c-77 -76 -143 -136 -146
-133 -4 4 61 72 144 153 l150 147 45 136 c25 76 46 141 46 145 0 4 -39 -35
-86 -87 -48 -53 -89 -94 -93 -93 -3 1 -23 -11 -44 -27 -51 -39 -57 -28 -7 12
22 18 37 38 34 46 -5 13 142 195 150 186 6 -6 86 71 86 83 0 5 -12 -6 -26 -23
-15 -17 -29 -29 -32 -26 -2 3 14 27 37 55 22 27 48 64 56 82 8 20 14 27 15 16
0 -10 -7 -33 -15 -53 -8 -19 -10 -32 -5 -29 4 3 10 0 12 -6 2 -6 72 66 156
160 108 121 160 188 177 228 14 31 23 58 20 61 -2 3 5 18 16 34 12 16 19 31
16 34 -3 3 -44 -46 -93 -108 -49 -62 -91 -115 -94 -118 -3 -3 -22 -24 -42 -48
-53 -59 -47 -41 10 32 27 33 79 102 117 151 l68 90 -124 -126 c-117 -118 -118
-114 -4 11 27 30 39 46 25 35 -44 -35 -125 -110 -123 -115 1 -3 -1 -7 -4 -10
-4 -3 -3 1 1 8 14 24 -8 11 -73 -45 -36 -31 -86 -65 -111 -77 -86 -39 -237
-20 -286 36 -19 21 -19 21 3 10 16 -9 22 -9 26 2 3 7 0 19 -6 25 -16 16 -1 14
34 -5 17 -8 37 -13 45 -10 8 3 14 1 14 -4 0 -6 21 -10 47 -10 56 0 123 30 157
71 14 16 29 31 33 32 4 1 7 8 7 14 -1 7 2 11 6 8 11 -7 60 52 60 71 0 8 4 14
9 14 12 0 -5 -63 -31 -114 -11 -21 -15 -35 -9 -31 27 16 77 142 84 210 2 11
10 34 20 52 26 50 20 53 -11 5 -16 -23 -32 -39 -35 -35 -13 12 -7 45 11 71 10
15 22 33 26 40 6 10 -28 13 -173 12 -127 -1 -181 -5 -185 -13 -3 -9 -5 -8 -5
1 -2 25 -59 12 -106 -23 -32 -25 -43 -30 -35 -16 5 11 20 27 32 35 14 10 17
16 8 16 -7 0 -24 -10 -37 -22 -23 -22 -33 -12 -11 10 7 7 8 12 3 12 -6 0 -25
-21 -42 -47 -18 -26 -33 -43 -33 -37 0 5 11 26 25 47 l26 37 -250 0 c-190 0
-251 -3 -255 -12 -5 -10 -7 -10 -12 0 -12 25 -23 11 -17 -23 4 -24 2 -35 -6
-35 -7 0 -10 4 -7 8 2 4 -4 14 -15 21 -18 10 -21 10 -26 -7 -3 -13 -12 -18
-29 -16 -17 2 -24 -3 -24 -16 0 -10 -6 -20 -12 -22 -18 -7 -39 2 -33 12 3 5
12 7 21 3 8 -3 14 -2 13 3 -4 24 2 44 14 41 6 -1 11 4 9 12 -3 12 0 12 12 1 9
-7 16 -8 16 -2 0 27 -31 33 -161 30 -86 -2 -133 -7 -132 -13 1 -6 -7 -11 -17
-11 -14 0 -16 3 -8 13 8 11 -352 13 -1941 13 l-1951 0 0 -1760z m3970 1740 c0
-13 -11 -13 -30 0 -12 8 -11 10 8 10 12 0 22 -4 22 -10z m996 -9 c-8 -12 21
-34 34 -26 5 3 10 2 10 -3 0 -22 -29 -19 -44 3 -19 29 -20 35 -5 35 5 0 8 -4
5 -9z m96 -3 c-9 -9 -15 -9 -24 0 -9 9 -7 12 12 12 19 0 21 -3 12 -12z m-1077
-8 c-3 -5 -12 -10 -18 -10 -7 0 -6 4 3 10 19 12 23 12 15 0z m-78 -18 c-7 -10
-13 -10 -15 -3 -2 6 -9 8 -14 5 -6 -4 -8 -3 -5 2 3 5 15 10 26 10 16 0 18 -3
8 -14z m60 -13 c8 -3 5 -12 -8 -28 -15 -19 -19 -20 -19 -6 0 11 -5 15 -14 12
-10 -4 -13 -1 -9 8 3 8 9 12 14 9 5 -3 9 3 9 13 0 11 3 14 8 7 4 -6 12 -13 19
-15z m1113 6 c7 -8 9 -15 5 -15 -4 0 -1 -8 6 -17 10 -12 10 -15 1 -9 -8 5 -14
-2 -18 -23 -4 -17 -10 -29 -14 -26 -4 3 -10 -1 -13 -9 -4 -10 0 -12 15 -8 20
5 20 4 3 -22 -15 -23 -34 -39 -21 -17 9 13 -19 32 -38 25 -9 -3 -16 -2 -16 4
0 16 28 34 41 26 7 -4 9 -3 5 4 -3 6 5 22 18 35 20 20 22 26 11 31 -9 3 -15 0
-15 -8 0 -8 -11 -13 -27 -13 l-27 0 22 17 c12 10 22 23 22 29 0 16 26 13 40
-4z m-140 -15 c0 -5 -5 -10 -11 -10 -5 0 -7 5 -4 10 3 6 8 10 11 10 2 0 4 -4
4 -10z m-3440 -10 c0 -5 -5 -10 -11 -10 -5 0 -7 5 -4 10 3 6 8 10 11 10 2 0 4
-4 4 -10z m2520 -4 c0 -11 -19 -15 -25 -6 -3 5 1 10 9 10 9 0 16 -2 16 -4z
m970 -12 c0 -11 6 -15 20 -11 25 6 27 -9 3 -16 -10 -2 -25 -8 -35 -12 -21 -9
-37 33 -17 46 21 13 29 11 29 -7z m150 -14 c0 -3 -7 -7 -15 -7 -8 0 -15 9 -15
20 0 16 3 17 15 7 8 -7 15 -16 15 -20z m125 20 c3 -5 1 -10 -4 -10 -6 0 -11 5
-11 10 0 6 2 10 4 10 3 0 8 -4 11 -10z m-1210 -9 c3 -5 2 -12 -3 -15 -5 -3 -9
1 -9 9 0 17 3 19 12 6z m65 -12 c0 -5 -9 -9 -20 -9 -22 0 -27 16 -7 23 15 5
27 -1 27 -14z m814 -1 c-3 -5 -12 -4 -20 3 -19 16 -18 18 6 12 11 -3 17 -9 14
-15z m-1214 8 c0 -2 -7 -7 -16 -10 -8 -3 -12 -2 -9 4 6 10 25 14 25 6z m1559
-51 c0 -5 -4 -3 -9 5 -5 8 -9 22 -9 30 0 16 17 -16 18 -35z m-159 4 c0 -5 -4
-9 -8 -9 -5 0 -9 7 -9 15 0 8 4 12 9 9 4 -3 8 -9 8 -15z m128 -10 c-3 -8 -7
-3 -11 10 -4 17 -3 21 5 13 5 -5 8 -16 6 -23z m82 21 c0 -5 -5 -10 -11 -10 -5
0 -7 5 -4 10 3 6 8 10 11 10 2 0 4 -4 4 -10z m-2815 -10 c3 -5 1 -10 -4 -10
-6 0 -11 5 -11 10 0 6 2 10 4 10 3 0 8 -4 11 -10z m2437 -18 c-3 -9 -1 -13 4
-9 12 7 41 -9 33 -18 -4 -3 -18 -1 -33 4 -27 11 -36 38 -12 38 8 0 12 -6 8
-15z m358 -6 c0 -3 -4 -8 -10 -11 -5 -3 -10 -1 -10 4 0 6 5 11 10 11 6 0 10
-2 10 -4z m-420 -10 c0 -3 -4 -8 -10 -11 -5 -3 -10 -1 -10 4 0 6 5 11 10 11 6
0 10 -2 10 -4z m136 -8 c4 -7 3 -8 -4 -4 -7 4 -12 0 -12 -10 0 -10 -3 -15 -6
-11 -7 6 2 37 10 37 3 0 8 -5 12 -12z m448 -120 c-87 -116 -262 -328 -270
-328 -7 0 -7 -1 154 200 68 84 137 173 154 197 17 23 33 41 36 39 2 -3 -31
-51 -74 -108z m-4644 82 c0 -5 -5 -10 -11 -10 -5 0 -7 5 -4 10 3 6 8 10 11 10
2 0 4 -4 4 -10z m3060 -6 c0 -2 -7 -4 -15 -4 -8 0 -15 4 -15 10 0 5 7 7 15 4
8 -4 15 -8 15 -10z m1351 -221 c-12 -20 -14 -14 -5 12 4 9 9 14 11 11 3 -2 0
-13 -6 -23z m49 -33 c-11 -16 -26 -33 -32 -36 -7 -4 1 9 16 29 34 44 46 50 16
7z m-160 17 c0 -2 -36 -34 -80 -73 -44 -38 -80 -75 -80 -83 0 -10 8 -7 27 10
15 13 -8 -14 -52 -61 -44 -47 -140 -172 -213 -278 -74 -105 -137 -190 -142
-187 -5 3 -12 0 -16 -6 -5 -8 -3 -9 6 -4 8 5 11 3 8 -6 -3 -8 -10 -13 -16 -12
-5 1 -16 -5 -24 -15 -12 -15 -11 -16 5 -3 26 20 20 1 -13 -43 -17 -22 -30 -33
-30 -25 -1 9 -8 6 -21 -10 -35 -42 -30 -16 6 31 43 58 388 538 400 558 7 13 5
12 -11 -1 -136 -111 -173 -139 -183 -139 -7 0 40 43 106 95 65 53 134 118 153
144 19 27 40 50 45 51 6 1 19 9 29 18 19 17 19 17 0 -13 -18 -28 -16 -27 36
13 55 41 60 45 60 39z m-675 -27 c-3 -5 -12 -10 -18 -10 -7 0 -6 4 3 10 19 12
23 12 15 0z m-2400 -40 c-3 -5 -18 -10 -33 -9 l-27 1 25 8 c35 11 42 11 35 0z
m3048 -56 c-66 -76 -265 -265 -271 -259 -4 4 318 323 326 325 2 0 -23 -30 -55
-66z m-3020 -31 c-7 -2 -19 -2 -25 0 -7 3 -2 5 12 5 14 0 19 -2 13 -5z m217
-17 c0 -3 -4 -8 -10 -11 -5 -3 -10 -1 -10 4 0 6 5 11 10 11 6 0 10 -2 10 -4z
m122 -160 c7 4 8 2 4 -5 -9 -13 -26 -5 -25 12 0 9 2 8 6 -1 2 -6 10 -9 15 -6z
m-2132 -20 c0 -3 -4 -8 -10 -11 -5 -3 -10 -1 -10 4 0 6 5 11 10 11 6 0 10 -2
10 -4z m5448 -22 c22 -6 32 -34 11 -34 -5 0 -8 4 -5 8 2 4 -5 8 -17 8 -77 1
-101 5 -87 14 17 11 64 13 98 4z m-3228 -18 c0 -11 -19 -15 -25 -6 -3 5 1 10
9 10 9 0 16 -2 16 -4z m3056 -37 c-14 -11 -23 -25 -20 -31 4 -6 2 -8 -3 -5
-10 7 -24 -18 -53 -90 -7 -18 -17 -33 -22 -33 -6 0 -7 8 -3 18 4 9 10 26 13
37 7 28 59 102 80 114 30 18 36 12 8 -10z m649 -7 c-3 -3 -11 0 -18 7 -9 10
-8 11 6 5 10 -3 15 -9 12 -12z m-5308 -18 c-3 -3 -12 -4 -19 -1 -8 3 -5 6 6 6
11 1 17 -2 13 -5z m1528 -34 c3 -5 1 -10 -4 -10 -6 0 -11 5 -11 10 0 6 2 10 4
10 3 0 8 -4 11 -10z m3395 -10 c0 -19 -38 -85 -60 -105 -20 -18 -20 -16 4 19
14 21 26 52 26 67 0 19 5 29 15 29 8 0 15 -5 15 -10z m-3450 -30 c8 -5 11 -10
5 -10 -5 0 -17 5 -25 10 -8 5 -10 10 -5 10 6 0 17 -5 25 -10z m1315 -70 c-3
-5 -14 -10 -23 -10 -15 0 -15 2 -2 10 20 13 33 13 25 0z m1790 -10 c3 -5 1
-10 -4 -10 -6 0 -11 5 -11 10 0 6 2 10 4 10 3 0 8 -4 11 -10z m190 -60 c-11
-5 -38 -8 -60 -8 l-40 1 45 7 c64 10 78 10 55 0z m-4485 -50 c-8 -6 -22 -10
-30 -10 -8 0 -4 6 10 13 27 15 44 12 20 -3z m520 -20 c0 -5 -5 -10 -11 -10 -5
0 -7 5 -4 10 3 6 8 10 11 10 2 0 4 -4 4 -10z m1780 6 c0 -2 -7 -7 -16 -10 -8
-3 -12 -2 -9 4 6 10 25 14 25 6z m-910 -16 c0 -5 -5 -10 -11 -10 -5 0 -7 5 -4
10 3 6 8 10 11 10 2 0 4 -4 4 -10z m-870 -30 c0 -5 -4 -10 -10 -10 -5 0 -10 5
-10 10 0 6 5 10 10 10 6 0 10 -4 10 -10z m905 -10 c-3 -5 -10 -10 -16 -10 -5
0 -9 5 -9 10 0 6 7 10 16 10 8 0 12 -4 9 -10z m489 -8 c2 -4 -5 -9 -17 -9 -17
-2 -19 0 -7 7 18 12 18 12 24 2z m-2049 -12 c-3 -5 -12 -10 -18 -10 -7 0 -6 4
3 10 19 12 23 12 15 0z m4265 -25 c-7 -9 -15 -13 -17 -11 -6 6 20 36 26 30 2
-2 -2 -10 -9 -19z m-2609 -8 c-8 -8 -14 -7 -23 2 -10 11 -10 13 0 7 6 -4 12
-2 12 4 0 6 5 8 11 4 8 -4 8 -9 0 -17z m-641 -5 c0 -4 -10 -13 -22 -21 -23
-14 -23 -14 -4 8 20 22 26 25 26 13z m1000 -16 c0 -3 -4 -8 -10 -11 -5 -3 -10
-1 -10 4 0 6 5 11 10 11 6 0 10 -2 10 -4z m110 0 c0 -3 -4 -8 -10 -11 -5 -3
-10 -1 -10 4 0 6 5 11 10 11 6 0 10 -2 10 -4z m-63 -28 c-3 -8 -6 -5 -6 6 -1
11 2 17 5 13 3 -3 4 -12 1 -19z m2148 12 c-3 -5 -11 -10 -16 -10 -6 0 -7 5 -4
10 3 6 11 10 16 10 6 0 7 -4 4 -10z m-2035 -10 c0 -5 -5 -10 -11 -10 -5 0 -7
5 -4 10 3 6 8 10 11 10 2 0 4 -4 4 -10z m-79 -23 c-10 -9 -11 -8 -5 6 3 10 9
15 12 12 3 -3 0 -11 -7 -18z m-2091 -32 c0 -2 -15 -12 -32 -21 l-33 -16 20 20
c18 19 45 29 45 17z m1810 -45 c8 -5 11 -12 8 -16 -10 -9 -38 3 -38 16 0 12
10 13 30 0z m-148 -18 c-7 -2 -9 -9 -6 -15 5 -9 4 -9 -6 0 -15 13 -4 37 13 26
8 -5 8 -8 -1 -11z m-312 -32 c0 -5 -2 -10 -4 -10 -3 0 -8 5 -11 10 -3 6 -1 10
4 10 6 0 11 -4 11 -10z m568 -8 c2 -7 -2 -10 -12 -6 -9 3 -16 11 -16 16 0 13
23 5 28 -10z m-696 -6 c7 4 8 2 4 -4 -4 -6 -13 -9 -21 -6 -8 4 -12 11 -8 17 5
8 8 7 11 -1 2 -7 9 -9 14 -6z m3326 2 c-3 -7 -11 -13 -18 -13 -7 0 -15 6 -17
13 -3 7 4 12 17 12 13 0 20 -5 18 -12z m-2708 -10 c0 -11 -12 -10 -30 2 -12 7
-10 9 8 7 12 0 22 -5 22 -9z m25 -8 c3 -5 1 -10 -4 -10 -6 0 -11 5 -11 10 0 6
2 10 4 10 3 0 8 -4 11 -10z m2797 -12 c-12 -12 -35 -1 -27 12 3 5 13 6 21 3
10 -4 12 -9 6 -15z m-2686 -13 c-3 -10 3 -17 19 -21 24 -6 36 -34 15 -34 -5 0
-10 4 -10 10 0 5 -16 17 -36 26 -32 15 -34 19 -18 25 29 12 37 10 30 -6z
m-1826 -15 c-6 -11 -13 -20 -16 -20 -2 0 0 9 6 20 6 11 13 20 16 20 2 0 0 -9
-6 -20z m1094 -8 c3 -5 -1 -9 -9 -9 -8 0 -12 4 -9 9 3 4 7 8 9 8 2 0 6 -4 9
-8z m-69 -12 c3 -5 2 -10 -4 -10 -5 0 -13 5 -16 10 -3 6 -2 10 4 10 5 0 13 -4
16 -10z m810 -20 c-3 -5 -12 -10 -18 -10 -7 0 -6 4 3 10 19 12 23 12 15 0z
m-1695 -20 c0 -5 -2 -10 -4 -10 -3 0 -8 5 -11 10 -3 6 -1 10 4 10 6 0 11 -4
11 -10z m-123 -32 c-3 -8 -6 -5 -6 6 -1 11 2 17 5 13 3 -3 4 -12 1 -19z m-516
-25 c-12 -20 -14 -14 -5 12 4 9 9 14 11 11 3 -2 0 -13 -6 -23z m479 11 c0 -8
-5 -12 -10 -9 -6 4 -8 11 -5 16 9 14 15 11 15 -7z m-30 -4 c0 -5 -5 -10 -11
-10 -5 0 -7 5 -4 10 3 6 8 10 11 10 2 0 4 -4 4 -10z m2123 3 c-7 -2 -21 -2
-30 0 -10 3 -4 5 12 5 17 0 24 -2 18 -5z m-1953 -7 c0 -3 -4 -8 -10 -11 -5 -3
-10 -1 -10 4 0 6 5 11 10 11 6 0 10 -2 10 -4z m28 -10 c-7 -8 -15 -12 -17 -11
-5 6 10 25 20 25 5 0 4 -6 -3 -14z m-98 -6 c0 -5 -2 -10 -4 -10 -3 0 -8 5 -11
10 -3 6 -1 10 4 10 6 0 11 -4 11 -10z m168 -12 c-6 -16 -21 -14 -24 4 -1 11 3
15 12 11 8 -3 13 -10 12 -15z m-581 6 c-3 -3 -12 -4 -19 -1 -8 3 -5 6 6 6 11
1 17 -2 13 -5z m783 -4 c0 -5 -5 -10 -11 -10 -5 0 -7 5 -4 10 3 6 8 10 11 10
2 0 4 -4 4 -10z m647 -5 c0 -8 -4 -12 -9 -9 -5 3 -6 10 -3 15 9 13 12 11 12
-6z m74 2 c-1 -12 -15 -9 -19 4 -3 6 1 10 8 8 6 -3 11 -8 11 -12z m-1691 -7
c0 -5 -5 -10 -11 -10 -5 0 -7 5 -4 10 3 6 8 10 11 10 2 0 4 -4 4 -10z m875 0
c3 -5 1 -10 -4 -10 -6 0 -11 5 -11 10 0 6 2 10 4 10 3 0 8 -4 11 -10z m-829
-16 c-18 -17 -23 -18 -23 -1 0 7 9 14 19 14 16 2 16 0 4 -13z m1062 -9 c-3 -3
-9 2 -12 12 -6 14 -5 15 5 6 7 -7 10 -15 7 -18z m1472 11 c0 -3 -4 -8 -10 -11
-5 -3 -10 -1 -10 4 0 6 5 11 10 11 6 0 10 -2 10 -4z m-2590 -27 c0 -6 -4 -7
-10 -4 -5 3 -10 11 -10 16 0 6 5 7 10 4 6 -3 10 -11 10 -16z m250 2 c-36 -19
-50 -19 -50 2 0 9 2 9 8 0 6 -10 12 -10 28 2 10 8 26 15 34 15 8 0 -1 -8 -20
-19z m440 15 c0 -3 -4 -8 -10 -11 -5 -3 -10 -1 -10 4 0 6 5 11 10 11 6 0 10
-2 10 -4z m570 -5 c0 -5 -7 -12 -16 -15 -8 -3 -12 -11 -8 -17 4 -8 3 -9 -4 -5
-9 5 -9 13 -2 27 11 19 30 26 30 10z m415 -11 c3 -5 2 -10 -4 -10 -5 0 -13 5
-16 10 -3 6 -2 10 4 10 5 0 13 -4 16 -10z m-1614 -18 c-7 -2 -18 1 -23 6 -8 8
-4 9 13 5 13 -4 18 -8 10 -11z m-128 -12 c-3 -11 -9 -20 -15 -20 -5 0 -4 9 2
20 6 11 12 20 14 20 2 0 2 -9 -1 -20z m347 6 c0 -3 -4 -8 -10 -11 -5 -3 -10
-1 -10 4 0 6 5 11 10 11 6 0 10 -2 10 -4z m97 -2 c-3 -3 -12 -4 -19 -1 -8 3
-5 6 6 6 11 1 17 -2 13 -5z m823 2 c0 -3 -4 -8 -10 -11 -5 -3 -10 -1 -10 4 0
6 5 11 10 11 6 0 10 -2 10 -4z m-1147 -13 c-7 -2 -19 -2 -25 0 -7 3 -2 5 12 5
14 0 19 -2 13 -5z m147 -3 c0 -5 -4 -10 -10 -10 -5 0 -10 5 -10 10 0 6 5 10
10 10 6 0 10 -4 10 -10z m4728 -33 c4 -22 -10 -21 -38 1 l-22 18 29 -1 c17 -1
29 -8 31 -18z m-5215 -11 c4 -10 1 -13 -9 -9 -7 3 -14 9 -14 14 0 14 17 10 23
-5z m51 -1 c-4 -8 -13 -15 -22 -15 -13 0 -12 3 4 15 24 18 25 18 18 0z m5310
-26 c-7 -12 -34 -11 -34 1 0 6 -7 10 -15 10 -18 0 -20 17 -2 23 16 5 58 -23
51 -34z m-152 -4 c0 -5 -5 -11 -11 -13 -6 -2 -11 4 -11 13 0 9 5 15 11 13 6
-2 11 -8 11 -13z m-52 1 c0 -11 -19 -15 -25 -6 -3 5 1 10 9 10 9 0 16 -2 16
-4z m-4573 -32 c-3 -3 -12 -4 -19 -1 -8 3 -5 6 6 6 11 1 17 -2 13 -5z m4583
-8 c0 -8 7 -16 15 -20 8 -3 15 -10 15 -16 0 -5 -7 -10 -15 -10 -8 0 -15 7 -15
16 0 11 -5 14 -17 9 -41 -17 -53 -17 -59 0 -8 21 11 35 49 35 16 0 27 -5 27
-14z m-2845 -26 c3 -5 1 -10 -4 -10 -6 0 -11 5 -11 10 0 6 2 10 4 10 3 0 8 -4
11 -10z m-1660 -30 c3 -6 -1 -7 -9 -4 -18 7 -21 14 -7 14 6 0 13 -4 16 -10z
m565 0 c0 -5 -2 -10 -4 -10 -3 0 -8 5 -11 10 -3 6 -1 10 4 10 6 0 11 -4 11
-10z m4114 -6 c5 -12 2 -15 -10 -10 -8 3 -18 6 -20 6 -3 0 -2 5 1 10 9 15 22
12 29 -6z m-3494 -4 c0 -5 -2 -10 -4 -10 -3 0 -8 5 -11 10 -3 6 -1 10 4 10 6
0 11 -4 11 -10z m3440 -9 c0 -15 -27 -44 -33 -34 -10 17 4 52 19 46 8 -3 14
-8 14 -12z m-690 -6 c0 -8 -4 -15 -10 -15 -5 0 -10 7 -10 15 0 8 5 15 10 15 6
0 10 -7 10 -15z m-3419 -10 c5 4 6 -1 2 -10 -5 -13 -7 -14 -14 -3 -5 7 -8 18
-8 23 0 6 3 4 6 -3 2 -6 9 -10 14 -7z m39 5 c0 -5 -5 -10 -11 -10 -5 0 -7 5
-4 10 3 6 8 10 11 10 2 0 4 -4 4 -10z m4188 -22 c-5 -13 -26 -18 -42 -9 -5 2
-1 8 10 12 28 11 36 10 32 -3z m16 -29 c-3 -5 -10 -7 -15 -3 -5 3 -7 10 -3 15
3 5 10 7 15 3 5 -3 7 -10 3 -15z m-346 -7 c3 -9 -2 -13 -14 -10 -9 1 -19 9
-22 16 -3 9 2 13 14 10 9 -1 19 -9 22 -16z m301 9 c8 -5 16 -21 18 -35 3 -22
0 -26 -21 -26 -31 0 -42 16 -16 23 11 3 20 10 20 17 0 6 -4 8 -10 5 -13 -8
-32 4 -25 16 8 11 16 11 34 0z m-4435 -17 c3 -8 2 -12 -4 -9 -6 3 -10 10 -10
16 0 14 7 11 14 -7z m233 -16 c-3 -8 -6 -5 -6 6 -1 11 2 17 5 13 3 -3 4 -12 1
-19z m-247 -8 c8 -5 11 -10 5 -10 -5 0 -17 5 -25 10 -8 5 -10 10 -5 10 6 0 17
-5 25 -10z m4502 -22 c-15 -15 -26 -4 -18 18 5 13 9 15 18 6 9 -9 9 -15 0 -24z
m-262 1 c0 -5 -4 -9 -10 -9 -5 0 -10 7 -10 16 0 8 5 12 10 9 6 -3 10 -10 10
-16z m-3730 1 c0 -5 -5 -10 -11 -10 -5 0 -7 5 -4 10 3 6 8 10 11 10 2 0 4 -4
4 -10z m-280 -20 c0 -5 -5 -10 -11 -10 -5 0 -7 5 -4 10 3 6 8 10 11 10 2 0 4
-4 4 -10z m3940 -5 c0 -8 -6 -15 -14 -15 -17 0 -28 14 -19 24 12 12 33 6 33
-9z m240 5 c0 -5 -4 -10 -10 -10 -5 0 -10 5 -10 10 0 6 5 10 10 10 6 0 10 -4
10 -10z m-3980 -9 c0 -5 -7 -12 -16 -15 -14 -5 -15 -4 -4 9 14 17 20 19 20 6z
m4159 -5 c10 -12 6 -16 -25 -25 -29 -8 -40 -7 -46 2 -12 19 -9 30 5 24 8 -3
20 -1 28 4 19 12 25 11 38 -5z m-289 -12 c0 -21 -50 -85 -61 -78 -15 9 -10 44
6 44 9 0 20 11 25 25 11 28 30 34 30 9z m403 -9 c-6 -16 -16 -19 -26 -8 -9 8
13 34 24 28 4 -3 6 -12 2 -20z m-301 0 c0 -5 -5 -11 -11 -13 -6 -2 -11 4 -11
13 0 9 5 15 11 13 6 -2 11 -8 11 -13z m38 0 c0 -8 -4 -15 -10 -15 -5 0 -10 7
-10 15 0 8 5 15 10 15 6 0 10 -7 10 -15z m60 -5 c0 -11 -30 -21 -42 -14 -7 5
-4 12 7 20 18 13 35 10 35 -6z m-3870 -20 c0 -5 -2 -10 -4 -10 -3 0 -8 5 -11
10 -3 6 -1 10 4 10 6 0 11 -4 11 -10z m3874 -9 c3 -4 -7 -22 -23 -40 -41 -46
-67 -39 -40 10 6 12 17 18 25 15 8 -3 14 1 14 9 0 16 16 20 24 6z m190 -6 c3
-8 1 -15 -4 -15 -6 0 -10 7 -10 15 0 8 2 15 4 15 2 0 6 -7 10 -15z m-154 1 c0
-3 -4 -8 -10 -11 -5 -3 -10 -1 -10 4 0 6 5 11 10 11 6 0 10 -2 10 -4z m-226
-21 c11 -8 17 -18 14 -21 -11 -10 -48 7 -48 22 0 18 10 17 34 -1z m-284 -15
c0 -15 -7 -20 -25 -20 -24 0 -34 18 -18 33 15 15 43 7 43 -13z m176 9 c3 -6 1
-16 -4 -21 -13 -13 -45 8 -36 23 7 12 31 11 40 -2z m204 2 c0 -17 -12 -41 -21
-41 -7 0 -7 24 0 48 2 7 21 1 21 -7z m-760 -5 c0 -3 -4 -8 -10 -11 -5 -3 -10
-1 -10 4 0 6 5 11 10 11 6 0 10 -2 10 -4z m-165 -16 c-3 -5 -12 -10 -18 -10
-7 0 -6 4 3 10 19 12 23 12 15 0z m499 -32 c-3 -5 -12 -4 -20 3 -7 6 -11 15
-8 21 3 5 12 4 20 -3 7 -6 11 -15 8 -21z m376 22 c0 -5 -2 -10 -4 -10 -3 0 -8
5 -11 10 -3 6 -1 10 4 10 6 0 11 -4 11 -10z m-743 -25 c-9 -8 -21 -15 -27 -15
-7 0 -2 9 11 19 28 22 39 20 16 -4z m573 -9 c0 -8 -4 -18 -10 -21 -5 -3 -10 3
-10 14 0 12 5 21 10 21 6 0 10 -6 10 -14z m171 -9 c-13 -13 -26 -3 -16 12 3 6
11 8 17 5 6 -4 6 -10 -1 -17z m78 11 c11 -11 12 -10 6 2 -6 11 -3 11 10 -2 25
-23 4 -48 -40 -48 -36 0 -48 8 -37 24 4 6 7 14 8 19 1 4 2 9 3 12 2 10 37 5
50 -7z m-909 -2 c0 -2 -9 -6 -20 -9 -11 -3 -18 -1 -14 4 5 9 34 13 34 5z m710
-6 c0 -5 -7 -10 -15 -10 -8 0 -15 5 -15 10 0 6 7 10 15 10 8 0 15 -4 15 -10z
m-3931 -19 c10 -7 7 -9 -12 -8 -14 1 -23 5 -20 10 6 9 15 9 32 -2z m3721 -12
c0 -5 -9 -9 -20 -9 -13 0 -18 5 -14 14 6 15 34 11 34 -5z m189 8 c6 -8 8 -17
4 -20 -7 -8 -33 11 -33 24 0 13 16 11 29 -4z m-331 -18 c-2 -6 -8 -10 -13 -10
-5 0 -11 4 -13 10 -2 6 4 11 13 11 9 0 15 -5 13 -11z m712 7 c0 -2 -7 -9 -15
-16 -12 -10 -15 -10 -15 4 0 9 7 16 15 16 8 0 15 -2 15 -4z m-340 -26 c0 -5
-4 -10 -10 -10 -5 0 -10 5 -10 10 0 6 5 10 10 10 6 0 10 -4 10 -10z m-44 -15
c-3 -8 -1 -15 4 -15 16 0 12 -17 -5 -24 -19 -7 -57 15 -51 29 1 5 10 9 20 7 9
-2 16 2 16 8 0 5 5 10 11 10 6 0 9 -7 5 -15z m-241 -5 c3 -5 -1 -10 -9 -10 -9
0 -16 5 -16 10 0 6 4 10 9 10 6 0 13 -4 16 -10z m346 -13 c-14 -14 -14 -57 -1
-57 6 0 10 -4 10 -10 0 -5 -10 -8 -21 -7 -17 3 -23 12 -26 38 -5 46 2 58 27
52 15 -4 18 -9 11 -16z m-574 -9 c-3 -8 -6 -5 -6 6 -1 11 2 17 5 13 3 -3 4
-12 1 -19z m624 5 c1 -10 1 -21 0 -25 0 -5 8 -8 19 -8 11 0 20 -5 20 -10 0 -6
-9 -20 -20 -32 -11 -12 -20 -17 -20 -10 0 6 5 14 10 17 16 10 12 25 -5 19 -8
-4 -17 1 -21 10 -3 9 -13 16 -22 16 -13 0 -12 3 3 20 22 25 35 25 36 3z m209
-4 c0 -5 -4 -9 -10 -9 -5 0 -10 7 -10 16 0 8 5 12 10 9 6 -3 10 -10 10 -16z
m-530 1 c0 -5 -4 -10 -10 -10 -5 0 -10 5 -10 10 0 6 5 10 10 10 6 0 10 -4 10
-10z m480 0 c0 -5 -4 -10 -10 -10 -5 0 -10 5 -10 10 0 6 5 10 10 10 6 0 10 -4
10 -10z m-1803 -22 c-3 -8 -6 -5 -6 6 -1 11 2 17 5 13 3 -3 4 -12 1 -19z
m1133 -8 c0 -5 -4 -10 -10 -10 -5 0 -10 5 -10 10 0 6 5 10 10 10 6 0 10 -4 10
-10z m316 -18 c-18 -18 -31 -10 -23 12 4 10 13 13 22 9 15 -5 15 -7 1 -21z
m-433 -45 c-9 -16 -26 12 -18 30 7 17 8 17 15 -2 4 -11 5 -24 3 -28z m470 13
c-6 -22 -33 -28 -33 -7 0 16 21 38 31 32 4 -3 5 -14 2 -25z m-273 -9 c0 -14
-18 -23 -30 -16 -6 4 -8 11 -5 16 8 12 35 12 35 0z m-2815 -11 c3 -5 1 -10 -4
-10 -6 0 -11 5 -11 10 0 6 2 10 4 10 3 0 8 -4 11 -10z m2765 1 c0 -12 -28 -22
-34 -12 -3 5 -3 11 1 15 9 9 33 7 33 -3z m190 0 c0 -14 -18 -23 -30 -16 -6 4
-8 11 -5 16 8 12 35 12 35 0z m180 2 c0 -5 -5 -15 -10 -23 -7 -11 -12 -12 -21
-3 -6 6 -8 16 -5 22 8 12 36 15 36 4z m417 -9 c-3 -3 -12 -4 -19 -1 -8 3 -5 6
6 6 11 1 17 -2 13 -5z m-766 -27 c-13 -13 -26 -3 -16 12 3 6 11 8 17 5 6 -4 6
-10 -1 -17z m194 13 c3 -5 -1 -10 -9 -10 -9 0 -16 5 -16 10 0 6 4 10 9 10 6 0
13 -4 16 -10z m485 -7 c0 -29 -12 -63 -21 -63 -10 0 -12 41 -3 64 8 21 24 20
24 -1z m-620 -3 c0 -5 -5 -10 -11 -10 -5 0 -7 5 -4 10 3 6 8 10 11 10 2 0 4
-4 4 -10z m195 -8 c12 -8 15 -53 3 -46 -4 3 -8 -4 -8 -14 0 -15 -9 -21 -32
-24 -41 -6 -68 1 -68 18 0 17 32 18 47 3 9 -9 13 -5 18 17 13 58 18 63 40 46z
m70 -2 c3 -5 -1 -10 -10 -10 -9 0 -13 5 -10 10 3 6 8 10 10 10 2 0 7 -4 10
-10z m-3015 -10 c0 -5 -8 -10 -17 -10 -15 0 -16 2 -3 10 19 12 20 12 20 0z
m2560 -11 c0 -16 -4 -19 -22 -13 -32 9 -35 14 -18 24 24 16 40 11 40 -11z
m-330 -9 c0 -5 -4 -10 -10 -10 -5 0 -10 5 -10 10 0 6 5 10 10 10 6 0 10 -4 10
-10z m820 -10 c0 -5 -4 -10 -10 -10 -5 0 -10 5 -10 10 0 6 5 10 10 10 6 0 10
-4 10 -10z m493 -45 c36 -10 57 -21 54 -28 -2 -7 -13 -11 -23 -11 -54 4 -181
40 -190 55 -12 20 16 26 59 13 23 -7 68 -20 100 -29z m-750 12 c26 -10 21 -37
-7 -37 -21 0 -25 5 -24 31 1 16 4 26 7 21 3 -4 14 -11 24 -15z m837 -3 c0 -8
-4 -14 -10 -14 -5 0 -10 9 -10 21 0 11 5 17 10 14 6 -3 10 -13 10 -21z m-1068
-34 c-19 -23 -26 -19 -17 9 3 12 12 18 20 15 11 -5 11 -9 -3 -24z m288 10 c0
-5 5 -10 10 -10 6 0 22 -12 35 -26 21 -22 27 -25 40 -14 9 7 18 10 21 7 10
-10 -34 -27 -51 -21 -9 4 -26 8 -38 9 -37 4 -38 5 -32 15 4 6 11 8 16 5 5 -3
6 1 3 9 -3 9 -10 16 -15 16 -5 0 -9 5 -9 10 0 6 5 10 10 10 6 0 10 -4 10 -10z
m-216 -6 c9 -3 16 -13 16 -21 0 -10 -6 -13 -16 -9 -8 3 -12 2 -9 -4 3 -6 -1
-13 -9 -16 -9 -3 -16 -13 -16 -21 0 -8 -5 -11 -10 -8 -6 4 -7 12 -3 18 4 7 8
23 9 37 1 14 2 26 3 28 2 4 19 2 35 -4z m366 -18 c0 -2 -7 -7 -16 -10 -8 -3
-12 -2 -9 4 6 10 25 14 25 6z m454 -8 c-5 -8 -2 -9 9 -5 10 3 17 3 17 -2 0 -5
19 -18 43 -30 42 -22 42 -22 9 -17 -51 9 -122 66 -81 66 5 0 7 -5 3 -12z
m-696 -16 c2 -7 -3 -12 -12 -12 -9 0 -16 7 -16 16 0 17 22 14 28 -4z m-258 -2
c0 -5 -4 -10 -9 -10 -6 0 -13 5 -16 10 -3 6 1 10 9 10 9 0 16 -4 16 -10z m220
-3 c0 -7 -6 -22 -14 -33 -21 -28 -43 -5 -24 25 14 23 38 28 38 8z m-175 -7 c3
-5 0 -10 -7 -10 -10 0 -9 -3 2 -11 13 -9 13 -10 0 -6 -17 4 -27 37 -11 37 5 0
13 -4 16 -10z m282 -22 c-3 -8 -6 -5 -6 6 -1 11 2 17 5 13 3 -3 4 -12 1 -19z
m49 2 c14 6 23 7 20 2 -7 -11 -325 -166 -331 -161 -2 3 50 32 116 64 78 39
118 64 114 72 -3 10 2 12 20 7 20 -5 25 -2 26 12 0 11 3 14 5 7 4 -9 13 -9 30
-3z m54 -36 c0 -16 -16 -19 -25 -4 -8 13 4 32 16 25 5 -4 9 -13 9 -21z m431
-23 c-33 -27 -34 -29 -13 -35 65 -21 122 -106 123 -183 2 -92 -18 -113 -125
-134 -44 -8 -53 -6 -108 23 -63 33 -103 77 -133 146 -33 77 0 105 140 118 54
5 66 3 120 -25 51 -27 56 -28 31 -7 -56 46 -142 57 -251 32 -33 -8 -61 -13
-63 -11 -2 2 8 11 22 20 40 26 126 46 173 39 36 -5 47 -2 75 20 45 35 52 33 9
-3z m-381 -21 c0 -5 -2 -10 -4 -10 -3 0 -8 5 -11 10 -3 6 -1 10 4 10 6 0 11
-4 11 -10z m-20 -55 c0 -8 -6 -15 -14 -15 -17 0 -28 14 -19 24 12 12 33 6 33
-9z m-2807 -29 c3 -8 -1 -22 -8 -33 -8 -10 -15 -13 -15 -7 0 5 5 15 12 22 9 9
9 12 0 12 -7 0 -12 5 -12 10 0 15 17 12 23 -4z m107 -35 c-11 -21 -30 -37 -30
-25 0 8 30 44 37 44 2 0 -1 -9 -7 -19z m2367 13 c-3 -3 -12 -4 -19 -1 -8 3 -5
6 6 6 11 1 17 -2 13 -5z m127 -15 c-12 -13 -20 -16 -22 -9 -3 7 2 16 9 21 25
16 32 9 13 -12z m356 -96 c13 -21 30 -44 38 -50 9 -7 12 -16 9 -20 -11 -11
-58 39 -78 82 -10 22 -18 56 -18 75 l0 35 13 -42 c8 -23 24 -59 36 -80z m430
83 c0 -2 -8 -10 -17 -17 -16 -13 -17 -12 -4 4 13 16 21 21 21 13z m-645 -76
c3 -5 -3 -10 -15 -10 -12 0 -18 5 -15 10 3 6 10 10 15 10 5 0 12 -4 15 -10z
m165 6 c0 -3 -27 -26 -60 -51 -33 -25 -60 -44 -60 -41 0 4 112 96 118 96 1 0
2 -2 2 -4z m-216 -36 c14 -5 26 -14 26 -19 0 -12 -30 -2 -48 16 -16 16 -12 16
22 3z m-9 -29 c5 -10 -35 -44 -43 -37 -2 3 -1 14 3 25 7 22 29 28 40 12z
m-1935 -38 c-1 -24 -2 -26 -11 -10 -5 9 -7 22 -4 27 10 17 15 11 15 -17z
m1406 -31 c-17 -16 -18 -16 -5 5 7 12 15 20 18 17 3 -2 -3 -12 -13 -22z m1314
-147 c0 -2 -10 -9 -22 -15 -22 -11 -22 -10 -4 4 21 17 26 19 26 11z"/>
<path d="M4520 2285 c-7 -9 -11 -17 -9 -20 3 -2 10 5 17 15 14 24 10 26 -8 5z"/>
<path d="M5692 609 c-43 -13 -47 -28 -22 -80 38 -80 99 -132 165 -142 l40 -6
-43 15 c-71 26 -162 137 -146 177 13 35 122 37 189 2 58 -29 71 -26 21 4 -19
12 -61 26 -93 31 -67 11 -67 11 -111 -1z"/>
<path d="M5794 540 c-28 -11 -22 -50 14 -82 23 -21 24 -21 17 -3 -18 48 -17
52 16 59 20 4 43 1 62 -9 40 -20 45 -12 10 13 -34 24 -90 35 -119 22z"/>
<path d="M5396 3504 c-11 -28 -6 -38 9 -18 8 10 15 22 15 27 0 13 -18 7 -24
-9z"/>
<path d="M5433 3508 c2 -7 10 -12 16 -10 16 3 14 -3 -6 -19 -10 -8 -14 -9 -10
-2 16 26 -11 20 -32 -7 -19 -27 -115 -280 -108 -287 7 -7 99 84 101 100 1 9
18 34 38 55 19 20 55 63 78 95 24 33 46 53 50 47 4 -6 15 -1 30 15 13 14 19
25 13 25 -6 0 -16 -7 -23 -15 -6 -8 -16 -13 -21 -12 -5 1 -59 -50 -120 -113
-107 -111 -84 -78 50 70 47 52 59 71 45 68 -12 -1 -55 -43 -97 -91 -42 -49
-77 -84 -77 -78 0 5 11 23 25 39 14 17 24 36 23 44 -2 7 2 12 8 11 6 -1 26 17
45 40 18 23 26 36 16 28 -11 -9 -17 -10 -17 -2 0 6 -7 11 -16 11 -9 0 -14 -6
-11 -12z m-43 -221 c0 -2 -17 -19 -37 -38 l-38 -34 34 38 c33 34 41 42 41 34z"/>
<path d="M5595 3490 c-15 -16 -31 -28 -35 -27 -5 1 -8 -2 -8 -7 0 -4 -18 -27
-39 -50 -22 -22 -53 -59 -69 -81 -27 -38 -25 -36 48 24 84 68 158 144 158 161
0 19 -26 10 -55 -20z"/>
<path d="M5707 3501 c-13 -15 -77 -155 -81 -176 -1 -5 -8 -21 -15 -35 -14 -24
-13 -25 6 -7 11 9 22 14 26 11 3 -3 10 5 17 18 11 22 10 22 -4 4 -9 -11 -16
-16 -16 -12 0 13 22 49 60 101 21 28 45 64 53 81 16 31 16 32 -8 32 -13 0 -30
-8 -38 -17z"/>
<path d="M5780 3499 c-17 -30 -6 -34 14 -4 9 14 12 25 7 25 -6 0 -15 -9 -21
-21z"/>
<path d="M5800 3490 c-12 -16 -26 -29 -32 -27 -6 1 -13 -4 -16 -12 -3 -9 0
-11 9 -6 8 5 11 4 6 -1 -5 -5 -14 -9 -20 -9 -7 0 -12 -7 -12 -16 0 -9 -5 -23
-11 -30 -20 -24 -43 -76 -38 -82 3 -3 12 -3 18 -1 7 3 25 6 41 7 17 1 34 12
44 27 l15 25 -22 -19 c-43 -37 -56 -26 -17 14 21 22 43 36 49 33 6 -3 8 -3 4
2 -4 4 11 28 32 53 22 25 40 50 40 56 0 6 5 4 10 -4 9 -13 11 -13 20 0 8 13
10 12 10 -2 0 -10 -4 -19 -10 -19 -5 -1 -16 -2 -22 -3 -7 0 -13 -6 -13 -11 0
-6 -14 -29 -30 -50 -62 -80 -76 -115 -46 -115 7 0 151 202 151 212 0 1 -31 4
-69 5 -67 3 -71 1 -91 -27z m10 -55 c-41 -41 -77 -75 -79 -75 -3 0 28 34 69
75 41 41 77 75 79 75 3 0 -28 -34 -69 -75z"/>
<path d="M5644 3455 c-9 -14 -14 -28 -11 -31 3 -3 -6 -22 -19 -41 -13 -20 -29
-53 -34 -74 -6 -21 -15 -41 -20 -44 -6 -3 -10 -14 -10 -23 0 -10 10 -2 25 20
14 20 25 41 25 46 0 5 13 33 29 62 16 30 27 58 24 63 -3 4 3 17 13 28 9 10 12
19 6 19 -6 0 -19 -11 -28 -25z"/>
<path d="M5934 3398 l-19 -23 23 19 c21 18 27 26 19 26 -2 0 -12 -10 -23 -22z"/>
<path d="M5639 3239 c-16 -17 -29 -26 -29 -19 0 26 -29 -13 -48 -63 -21 -58
-22 -113 -3 -170 11 -33 15 -36 29 -25 15 12 16 11 3 -5 -12 -16 -11 -21 15
-49 38 -40 82 -58 143 -58 58 0 97 13 128 42 l22 21 -43 38 c-60 53 -89 117
-82 180 6 51 30 109 46 109 6 0 10 4 10 9 0 13 -24 8 -46 -9 -16 -12 -17 -12
-6 0 22 25 13 30 -49 30 -55 0 -64 -3 -90 -31z m125 -31 c-36 -61 -185 -266
-159 -218 8 14 92 138 137 203 19 27 36 38 22 15z m-154 -16 c0 -5 -7 -17 -15
-28 -14 -18 -14 -17 -4 9 12 27 19 34 19 19z m45 -89 c-30 -56 -85 -126 -65
-83 15 30 82 130 87 130 2 0 -8 -21 -22 -47z"/>
<path d="M5918 3254 c-3 -3 9 -20 26 -38 48 -47 71 -156 46 -220 -13 -35 12
-35 45 -1 22 21 25 33 25 101 l0 77 -44 43 c-40 40 -81 56 -98 38z"/>
<path d="M5856 3168 c-20 -67 -9 -120 33 -162 29 -28 32 -29 47 -14 12 12 17
36 18 93 1 77 0 78 -34 106 -19 16 -38 29 -42 29 -4 0 -14 -24 -22 -52z"/>
<path d="M5427 3084 c-37 -41 -64 -80 -61 -86 4 -6 2 -8 -3 -5 -14 9 -116
-110 -107 -124 4 -7 3 -9 -3 -6 -6 4 -31 -15 -55 -41 -39 -41 -50 -65 -89
-182 -57 -175 -56 -170 -21 -136 17 16 30 32 29 36 -3 12 148 230 151 219 2
-5 13 2 24 16 10 14 16 29 13 35 -4 6 -1 9 6 8 6 -2 14 3 17 11 3 9 0 11 -8 6
-6 -4 5 18 26 49 37 56 55 74 34 35 -6 -11 -13 -29 -15 -40 -2 -10 -28 -54
-57 -96 -75 -108 -77 -114 -26 -65 25 24 56 66 68 93 13 27 25 47 28 45 2 -2
-1 -14 -8 -25 -6 -12 -8 -21 -6 -21 14 0 26 42 17 57 -7 13 -3 29 16 60 16 27
23 53 20 69 -2 13 0 27 6 31 6 4 7 1 2 -7 -5 -9 -4 -11 4 -6 6 4 9 11 6 15 -2
5 5 17 16 27 11 10 18 23 15 30 -3 7 1 18 9 24 10 8 14 8 17 -2 3 -7 5 2 5 20
0 17 -1 32 -1 32 -1 0 -32 -34 -69 -76z m33 3 c0 -2 -17 -19 -37 -38 l-38 -34
34 38 c33 34 41 42 41 34z m-110 -152 c-7 -8 -26 -22 -44 -30 l-31 -16 30 30
c32 31 69 45 45 16z"/>
<path d="M4907 3099 c7 -7 15 -10 18 -7 3 3 -2 9 -12 12 -14 6 -15 5 -6 -5z"/>
<path d="M5508 2868 c-19 -30 -42 -75 -35 -68 14 13 58 83 54 86 -2 3 -11 -6
-19 -18z"/>
<path d="M5340 2860 c-6 -11 -8 -20 -6 -20 3 0 10 9 16 20 6 11 8 20 6 20 -3
0 -10 -9 -16 -20z"/>
<path d="M5180 2835 c-7 -9 -11 -18 -8 -20 3 -3 11 1 18 10 7 9 11 18 8 20 -3
3 -11 -1 -18 -10z"/>
<path d="M5009 2653 l-24 -28 28 24 c15 14 27 26 27 28 0 8 -8 1 -31 -24z"/>
<path d="M4950 2600 c-14 -10 -22 -21 -20 -24 3 -2 16 4 30 14 14 10 22 21 20
24 -3 2 -16 -4 -30 -14z"/>
<path d="M5160 2595 c-8 -9 -8 -15 -2 -15 12 0 26 19 19 26 -2 2 -10 -2 -17
-11z"/>
<path d="M6165 2538 c-32 -17 -76 -61 -91 -90 -27 -51 -10 -142 34 -191 25
-28 87 -57 122 -57 l30 0 0 175 0 175 -37 0 c-21 0 -47 -6 -58 -12z"/>
<path d="M6060 2045 c-7 -8 -24 -15 -39 -15 -70 -1 -181 -94 -210 -176 -34
-98 -4 -171 33 -80 13 30 28 48 47 56 16 7 31 21 34 31 11 32 188 68 251 50
74 -21 84 -17 84 34 0 52 -12 63 -105 95 -70 24 -79 24 -95 5z m-233 -247 c-3
-8 -6 -5 -6 6 -1 11 2 17 5 13 3 -3 4 -12 1 -19z"/>
</g>
</svg>
